<svg width="52" height="53" viewBox="0 0 52 53" fill="none" xmlns="http://www.w3.org/2000/svg">
<path d="M23.2852 32.5835C23.2852 33.4222 23.9675 34.1045 24.8062 34.1045C25.6448 34.1045 26.3272 33.4222 26.3272 32.5835C26.3272 31.7448 25.6448 31.0625 24.8062 31.0625C23.9675 31.0625 23.2852 31.7448 23.2852 32.5835ZM24.8062 32.0765C25.0857 32.0765 25.3132 32.3039 25.3132 32.5835C25.3132 32.8631 25.0857 33.0905 24.8062 33.0905C24.5266 33.0905 24.2992 32.8631 24.2992 32.5835C24.2992 32.3039 24.5266 32.0765 24.8062 32.0765Z" fill="white"/>
<path d="M28.3906 32.5835C28.3906 33.4222 29.0729 34.1045 29.9116 34.1045C30.7503 34.1045 31.4326 33.4222 31.4326 32.5835C31.4326 31.7448 30.7503 31.0625 29.9116 31.0625C29.0729 31.0625 28.3906 31.7448 28.3906 32.5835ZM29.9116 32.0765C30.1912 32.0765 30.4186 32.3039 30.4186 32.5835C30.4186 32.8631 30.1912 33.0905 29.9116 33.0905C29.6321 33.0905 29.4046 32.8631 29.4046 32.5835C29.4046 32.3039 29.6321 32.0765 29.9116 32.0765Z" fill="white"/>
<path d="M33.9666 20.9225H21.1333C20.9597 20.3148 20.7979 19.7486 20.659 19.2623C20.5968 19.0446 20.3978 18.8945 20.1715 18.8945H17.675C17.395 18.8945 17.168 19.1215 17.168 19.4015C17.168 19.6815 17.395 19.9085 17.675 19.9085H19.789C20.356 21.8931 21.6814 26.5323 22.2371 28.4772L22.045 28.8613C21.5389 29.8737 22.276 31.0625 23.4055 31.0625H31.9386C32.2186 31.0625 32.4456 30.8355 32.4456 30.5555C32.4456 30.2755 32.2186 30.0485 31.9386 30.0485H23.4055C23.0284 30.0485 22.7835 29.6518 22.952 29.3148L23.0921 29.0345H31.9386C32.1649 29.0345 32.3639 28.8845 32.4261 28.6668L34.4541 21.5688C34.5465 21.2455 34.3036 20.9225 33.9666 20.9225ZM31.5562 28.0205H23.1612C22.885 27.0536 22.1118 24.3477 21.423 21.9365H33.2945L31.5562 28.0205Z" fill="white"/>
<!--<rect x="0.35" y="0.35" width="50.9429" height="52.3" rx="25.4714" stroke="white" stroke-opacity="0.2" stroke-width="0.7"/>-->
</svg>
