<svg width="53" height="53" viewBox="0 0 53 53" fill="none" xmlns="http://www.w3.org/2000/svg">
<path d="M18.3725 31.4804C19.2841 31.4804 20.1634 31.3627 21.0103 31.1275C21.8572 30.8922 22.646 30.5523 23.3765 30.1078C24.1071 29.6634 24.7762 29.1405 25.384 28.5392C25.9917 27.9379 26.5121 27.2614 26.9453 26.5098C27.3785 25.7582 27.7114 24.9575 27.9442 24.1078C28.1769 23.2582 28.2965 22.3693 28.303 21.4412C28.303 20.5719 28.1931 19.719 27.9733 18.8824C27.7534 18.0458 27.4334 17.2516 27.0132 16.5C27.8407 16.6046 28.6327 16.8039 29.3891 17.098C30.1455 17.3922 30.847 17.768 31.4935 18.2255C32.14 18.683 32.7251 19.2092 33.2488 19.8039C33.7725 20.3987 34.2186 21.049 34.5871 21.7549C34.9556 22.4608 35.2433 23.2092 35.4502 24C35.6571 24.7908 35.7573 25.6111 35.7508 26.4608C35.7508 27.3824 35.6345 28.2712 35.4017 29.1275C35.169 29.9837 34.8328 30.781 34.3931 31.5196C33.9535 32.2582 33.4363 32.9346 32.8415 33.549C32.2467 34.1634 31.5776 34.6895 30.8341 35.1275C30.0906 35.5654 29.2986 35.902 28.4581 36.1373C27.6177 36.3725 26.7384 36.4935 25.8204 36.5C24.9282 36.5 24.0586 36.3824 23.2117 36.1471C22.3647 35.9118 21.5695 35.5752 20.826 35.1373C20.0825 34.6993 19.3972 34.1634 18.7701 33.5294C18.143 32.8954 17.6129 32.1863 17.1797 31.402C17.3801 31.4281 17.5773 31.4477 17.7712 31.4608C17.9652 31.4739 18.1656 31.4804 18.3725 31.4804ZM25.8204 35.2451C26.622 35.2451 27.3914 35.1405 28.1284 34.9314C28.8654 34.7222 29.5572 34.4281 30.2037 34.049C30.8502 33.6699 31.4353 33.2124 31.959 32.6765C32.4827 32.1405 32.9353 31.549 33.3167 30.902C33.6981 30.2549 33.9923 29.5556 34.1992 28.8039C34.4061 28.0523 34.5095 27.2712 34.5095 26.4608C34.5095 25.5719 34.3802 24.7124 34.1216 23.8824C33.863 23.0523 33.501 22.281 33.0355 21.5686C32.57 20.8562 32.001 20.2222 31.3287 19.6667C30.6563 19.1111 29.916 18.6667 29.1079 18.3333C29.3988 19.3464 29.5443 20.3824 29.5443 21.4412C29.5443 22.3954 29.4311 23.317 29.2049 24.2059C28.9786 25.0948 28.6553 25.9379 28.2351 26.7353C27.8149 27.5327 27.3073 28.268 26.7125 28.9412C26.1178 29.6144 25.4551 30.2092 24.7245 30.7255C23.994 31.2418 23.2052 31.6634 22.3583 31.9902C21.5113 32.317 20.6159 32.5392 19.672 32.6569C20.4995 33.4935 21.437 34.134 22.4843 34.5784C23.5317 35.0229 24.6437 35.2451 25.8204 35.2451Z" fill="white"/>
<!--<rect x="0.994531" y="0.35" width="50.9429" height="52.3" rx="25.4714" stroke="white" stroke-opacity="0.2" stroke-width="0.7"/>-->
</svg>
