<svg width="20" height="21" viewBox="0 0 20 21" fill="none" xmlns="http://www.w3.org/2000/svg">
<path d="M13.2 10.0781C13.2 10.711 13.0123 11.3297 12.6607 11.8559C12.3091 12.3822 11.8093 12.7923 11.2246 13.0345C10.6399 13.2767 9.99645 13.3401 9.37571 13.2166C8.75497 13.0932 8.18479 12.7884 7.73726 12.3409C7.28973 11.8933 6.98496 11.3232 6.86149 10.7024C6.73801 10.0817 6.80138 9.43826 7.04359 8.85354C7.28579 8.26881 7.69594 7.76904 8.22218 7.41742C8.74841 7.0658 9.3671 6.87813 10 6.87813C10.8484 6.8791 11.6618 7.21655 12.2617 7.81646C12.8616 8.41636 13.199 9.22973 13.2 10.0781ZM20 5.67813V14.4781C19.9983 15.9628 19.4078 17.3862 18.3579 18.4361C17.3081 19.4859 15.8847 20.0764 14.4 20.0781H5.6C4.1153 20.0764 2.6919 19.4859 1.64206 18.4361C0.59222 17.3862 0.00168148 15.9628 0 14.4781V5.67813C0.00168148 4.19343 0.59222 2.77002 1.64206 1.72018C2.6919 0.670345 4.1153 0.0798065 5.6 0.078125H14.4C15.8847 0.0798065 17.3081 0.670345 18.3579 1.72018C19.4078 2.77002 19.9983 4.19343 20 5.67813V5.67813ZM14.8 10.0781C14.8 9.12877 14.5185 8.20074 13.9911 7.41139C13.4636 6.62203 12.714 6.0068 11.8369 5.6435C10.9598 5.2802 9.99468 5.18515 9.06357 5.37036C8.13246 5.55557 7.27718 6.01272 6.60589 6.68401C5.9346 7.3553 5.47744 8.21058 5.29223 9.14169C5.10702 10.0728 5.20208 11.0379 5.56538 11.915C5.92868 12.7921 6.54391 13.5417 7.33326 14.0692C8.12262 14.5966 9.05065 14.8781 10 14.8781C11.2726 14.8767 12.4927 14.3705 13.3925 13.4706C14.2924 12.5708 14.7986 11.3507 14.8 10.0781V10.0781ZM16.4 4.87813C16.4 4.64079 16.3296 4.40878 16.1978 4.21144C16.0659 4.0141 15.8785 3.86029 15.6592 3.76947C15.4399 3.67864 15.1987 3.65488 14.9659 3.70118C14.7331 3.74748 14.5193 3.86177 14.3515 4.0296C14.1836 4.19742 14.0694 4.41124 14.0231 4.64402C13.9768 4.87679 14.0005 5.11807 14.0913 5.33735C14.1822 5.55662 14.336 5.74403 14.5333 5.87589C14.7307 6.00775 14.9627 6.07813 15.2 6.07813C15.5183 6.07813 15.8235 5.9517 16.0485 5.72665C16.2736 5.50161 16.4 5.19638 16.4 4.87813Z" fill="#65676B"/>
</svg>
