<svg width="20" height="21" viewBox="0 0 20 21" fill="none" xmlns="http://www.w3.org/2000/svg">
<path d="M18.1673 0.078125H1.83268C0.833333 0.078125 0 0.911458 0 1.91081V18.2454C0 19.2448 0.833333 20.0781 1.83268 20.0781H18.1673C19.1667 20.0781 20 19.2448 20 18.2454V1.91081C20 0.911458 19.1667 0.078125 18.1673 0.078125ZM5.83333 16.7448H2.5V7.57812H5.83333V16.7448ZM4.16667 6.49414C3.16732 6.49414 2.5 5.82682 2.5 4.99349C2.5 4.07878 3.16732 3.41146 4.16667 3.41146C5.16602 3.41146 5.83333 4.07878 5.83333 4.91211C5.83333 5.82682 5.16602 6.49414 4.16667 6.49414ZM17.5 16.7448H14.1667V11.7448C14.1667 10.4102 13.2487 10.0781 13.0013 10.0781C12.7507 10.0781 11.6667 10.2441 11.6667 11.7448C11.6667 11.9108 11.6667 16.7448 11.6667 16.7448H8.33333V7.57812H11.6667V8.91276C12.168 8.16081 13.0013 7.57812 14.5833 7.57812C16.1654 7.57812 17.5 8.82812 17.5 11.7448V16.7448Z" fill="#65676B"/>
</svg>
