<svg width="20" height="21" viewBox="0 0 20 21" fill="none" xmlns="http://www.w3.org/2000/svg">
<path d="M20 2.43608C19.2522 2.84801 18.4989 3.15341 17.6674 3.25284C18.4989 2.64205 19.1685 1.61222 19.4978 0.490058C18.6663 1.10085 17.8348 1.51279 16.9196 1.71875C16.0826 0.696023 15 0.078125 13.8337 0.078125C11.5848 0.078125 9.74888 2.33665 9.74888 5.10653C9.74888 5.51136 9.74888 5.9233 9.83259 6.2358C5.53571 6.2358 2.58929 3.15341 0.591519 0.078125C0.172991 0.795454 0.00558002 1.71875 0.00558002 2.64205C0.00558002 4.3821 0.758929 5.9233 1.84152 6.84659C1.17188 6.74716 0.507813 6.54119 0.00558002 6.2358C0.00558002 6.2358 0.00558002 6.2358 0.00558002 6.33523C0.00558002 8.79972 1.42299 10.8452 3.25893 11.2571C2.92411 11.3565 2.58929 11.4631 2.17076 11.4631C1.92522 11.4631 1.67411 11.4631 1.42299 11.3636C1.92522 13.4162 4.25223 15.7741 6.08259 15.7741C4.66518 17.1023 3.34821 18.2599 0.714286 18.2599C0.379464 18.2599 0.647321 18.2599 0 18.2599C1.83036 19.6946 4.00112 20.0781 6.25 20.0781C13.8337 20.0781 17.9185 12.3864 17.9185 5.71733C17.9185 5.51136 17.9185 5.3125 17.9185 5.10653C18.75 4.3821 19.4196 3.46591 20 2.43608Z" fill="#65676B"/>
</svg>
