<svg width="24" height="20" viewBox="0 0 24 20" fill="none" xmlns="http://www.w3.org/2000/svg">
<path d="M23 1.03838C22.0424 1.71385 20.9821 2.23049 19.86 2.56838C19.2577 1.87589 18.4573 1.38507 17.567 1.1623C16.6767 0.939536 15.7395 0.995572 14.8821 1.32283C14.0247 1.65009 13.2884 2.23278 12.773 2.99209C12.2575 3.75141 11.9877 4.65071 12 5.56838V6.56838C10.2426 6.61394 8.50127 6.22419 6.93101 5.43382C5.36074 4.64346 4 3.53833 3 2.03838C3 2.03838 -1 11.0384 8 15.0384C5.94053 16.4363 3.48716 17.1373 1 17.0384C10 22.0384 21 17.0384 21 5.53838C20.9991 5.25983 20.9723 4.98197 20.92 4.70838C21.9406 3.70187 22.6608 2.43109 23 1.03838Z" stroke="#777E91" stroke-width="1.5" stroke-linecap="round" stroke-linejoin="round"/>
</svg>
