<svg width="61" height="60" viewBox="0 0 61 60" fill="none" xmlns="http://www.w3.org/2000/svg">
<path d="M24.9915 9.11074C24.9915 5.87988 27.62 3.25137 30.8509 3.25137H32.8787L32.267 1.55098C31.923 0.594727 31.0219 0 30.0614 0C29.7953 0 29.5246 0.0457031 29.26 0.142031L8.76937 7.59996C7.55121 8.0434 6.92426 9.39141 7.37027 10.6086L8.45297 13.5639H24.9915V9.11074Z" fill="#8358FF"/>
<path d="M30.8516 6.76709C29.5571 6.76709 28.5078 7.81639 28.5078 9.11084V13.564H49.0156V9.11084C49.0156 7.81639 47.9663 6.76709 46.6719 6.76709H30.8516Z" fill="#8358FF"/>
<path d="M55.2266 47.3726H47.0234C42.1771 47.3726 38.2344 43.4298 38.2344 38.5835C38.2344 33.7372 42.1771 29.7944 47.0234 29.7944H55.2266V21.7671C55.2266 19.1783 53.1279 17.0796 50.5391 17.0796H5.1875C2.59871 17.0796 0.5 19.1783 0.5 21.7671V55.3126C0.5 57.9014 2.59871 60.0001 5.1875 60.0001H50.5391C53.1279 60.0001 55.2266 57.9014 55.2266 55.3126V47.3726Z" fill="#8358FF"/>
<path d="M58.7422 33.3101H47.0234C44.1157 33.3101 41.75 35.6757 41.75 38.5835C41.75 41.4913 44.1157 43.8569 47.0234 43.8569H58.7422C59.7114 43.8569 60.5 43.0684 60.5 42.0991V35.0679C60.5 34.0986 59.7114 33.3101 58.7422 33.3101ZM47.0234 40.3413C46.0527 40.3413 45.2656 39.5543 45.2656 38.5835C45.2656 37.6127 46.0527 36.8257 47.0234 36.8257C47.9942 36.8257 48.7812 37.6127 48.7812 38.5835C48.7812 39.5543 47.9942 40.3413 47.0234 40.3413Z" fill="#8358FF"/>
</svg>
