<svg width="14" height="18" viewBox="0 0 14 18" fill="none" xmlns="http://www.w3.org/2000/svg">
<path d="M6.75 18C10.4782 18 13.5 15.75 13.5 11.8125C13.5 10.125 12.9375 7.3125 10.6875 5.0625C10.9688 6.75 9.28125 7.3125 9.28125 7.3125C10.125 4.5 7.875 0.5625 4.5 0C4.90163 2.25 5.0625 4.5 2.25 6.75C0.84375 7.875 0 9.82012 0 11.8125C0 15.75 3.02175 18 6.75 18ZM6.75 16.875C4.88588 16.875 3.375 15.75 3.375 13.7812C3.375 12.9375 3.65625 11.5312 4.78125 10.4062C4.64062 11.25 5.625 11.8125 5.625 11.8125C5.20312 10.4062 6.1875 8.15625 7.875 7.875C7.67362 9 7.59375 10.125 9 11.25C9.70312 11.8125 10.125 12.7845 10.125 13.7812C10.125 15.75 8.61413 16.875 6.75 16.875Z" fill="white"/>
</svg>
