<svg width="19" height="21" viewBox="0 0 19 21" fill="none" xmlns="http://www.w3.org/2000/svg">
<path d="M1.59907 15.4804C2.51066 15.4804 3.38992 15.3627 4.23685 15.1275C5.08378 14.8922 5.87253 14.5523 6.60309 14.1078C7.33366 13.6634 8.0028 13.1405 8.61052 12.5392C9.21825 11.9379 9.73869 11.2614 10.1719 10.5098C10.605 9.75817 10.938 8.95752 11.1707 8.10784C11.4035 7.25817 11.5231 6.36928 11.5295 5.44118C11.5295 4.5719 11.4196 3.71895 11.1998 2.88235C10.98 2.04575 10.66 1.25163 10.2397 0.5C11.0673 0.604575 11.8593 0.803922 12.6157 1.09804C13.3721 1.39216 14.0736 1.76797 14.7201 2.22549C15.3666 2.68301 15.9517 3.20915 16.4754 3.80392C16.9991 4.39869 17.4451 5.04902 17.8137 5.7549C18.1822 6.46078 18.4699 7.20915 18.6768 8C18.8836 8.79085 18.9839 9.61111 18.9774 10.4608C18.9774 11.3824 18.861 12.2712 18.6283 13.1275C18.3955 13.9837 18.0593 14.781 17.6197 15.5196C17.1801 16.2582 16.6629 16.9346 16.0681 17.549C15.4733 18.1634 14.8041 18.6895 14.0606 19.1275C13.3172 19.5654 12.5252 19.902 11.6847 20.1373C10.8442 20.3725 9.96497 20.4935 9.04692 20.5C8.15473 20.5 7.28517 20.3824 6.43823 20.1471C5.5913 19.9118 4.79609 19.5752 4.05259 19.1373C3.3091 18.6993 2.6238 18.1634 1.99668 17.5294C1.36956 16.8954 0.839415 16.1863 0.40625 15.402C0.60667 15.4281 0.803857 15.4477 0.997811 15.4608C1.19177 15.4739 1.39218 15.4804 1.59907 15.4804ZM9.04692 19.2451C9.8486 19.2451 10.618 19.1405 11.355 18.9314C12.092 18.7222 12.7838 18.4281 13.4303 18.049C14.0768 17.6699 14.6619 17.2124 15.1856 16.6765C15.7093 16.1405 16.1618 15.549 16.5433 14.902C16.9247 14.2549 17.2189 13.5556 17.4258 12.8039C17.6326 12.0523 17.7361 11.2712 17.7361 10.4608C17.7361 9.5719 17.6068 8.71242 17.3482 7.88235C17.0896 7.05229 16.7275 6.28105 16.262 5.56863C15.7965 4.85621 15.2276 4.22222 14.5552 3.66667C13.8828 3.11111 13.1426 2.66667 12.3344 2.33333C12.6254 3.34641 12.7708 4.38235 12.7708 5.44118C12.7708 6.39542 12.6577 7.31699 12.4314 8.20588C12.2051 9.09477 11.8819 9.93791 11.4617 10.7353C11.0414 11.5327 10.5339 12.268 9.93911 12.9412C9.34432 13.6144 8.68164 14.2092 7.95108 14.7255C7.22052 15.2418 6.43177 15.6634 5.58483 15.9902C4.7379 16.317 3.84248 16.5392 2.89856 16.6569C3.7261 17.4935 4.66355 18.134 5.7109 18.5784C6.75826 19.0229 7.87026 19.2451 9.04692 19.2451Z" fill="#0D172B"/>
</svg>
