<svg width="61" height="60" viewBox="0 0 61 60" fill="none" xmlns="http://www.w3.org/2000/svg">
<path d="M0.5 2C0.5 0.895432 1.39543 0 2.5 0H18.9706C20.0752 0 20.9706 0.89543 20.9706 2V15.6471C20.9706 16.7516 20.0752 17.6471 18.9706 17.6471H2.5C1.39543 17.6471 0.5 16.7516 0.5 15.6471V2Z" fill="#10B981"/>
<path d="M7.3897 46.0528C7.07576 45.9756 6.74777 45.9755 6.43382 46.0528L2.02214 47.1383C1.1283 47.3582 0.5 48.1599 0.5 49.0804V57.9999C0.5 59.1045 1.39543 59.9999 2.5 59.9999H18.9706C20.0752 59.9999 20.9706 59.1045 20.9706 57.9999V47.7062C20.9706 46.1415 19.2549 45.1829 17.9223 46.0029L15.5685 47.4516C15.1122 47.7324 14.5624 47.8184 14.0422 47.6903L7.3897 46.0528Z" fill="#10B981"/>
<path d="M0.5 41.3258C0.5 42.6239 1.71738 43.578 2.97786 43.2679L6.43385 42.4175C6.74778 42.3403 7.07575 42.3403 7.38968 42.4175L13.4505 43.9092C13.9707 44.0372 14.5204 43.9513 14.9766 43.6705L20.0187 40.568C20.6103 40.204 20.9706 39.5592 20.9706 38.8646V23.647C20.9706 22.5424 20.0752 21.647 18.9706 21.647H2.5C1.39543 21.647 0.5 22.5424 0.5 23.647V41.3258ZM-nan -nanL10.7353 28.2352C12.7459 28.2352 14.3824 29.8717 14.3824 31.8823C14.3824 33.8929 12.7459 35.5293 10.7353 35.5293C8.72471 35.5293 7.08824 33.8929 7.08824 31.8823C7.08824 29.8717 8.72471 28.2352 10.7353 28.2352L-nan -nanZ" fill="#10B981"/>
<path d="M24.9688 41.5298C24.9688 40.4252 25.8642 39.5298 26.9688 39.5298H58.4982C59.6027 39.5298 60.4982 40.4252 60.4982 41.5298V58.0004C60.4982 59.1049 59.6027 60.0004 58.4982 60.0004H26.9688C25.8642 60.0004 24.9688 59.1049 24.9688 58.0004V41.5298Z" fill="#10B981"/>
<path d="M42.7341 19.7652C44.3585 19.7652 45.6753 18.4484 45.6753 16.824C45.6753 15.1996 44.3585 13.8828 42.7341 13.8828C41.1098 13.8828 39.793 15.1996 39.793 16.824C39.793 18.4484 41.1098 19.7652 42.7341 19.7652Z" fill="#10B981"/>
<path d="M26.9688 0C25.8642 0 24.9688 0.895431 24.9688 2V33.5294C24.9688 34.634 25.8642 35.5294 26.9688 35.5294H31.4393C32.5439 35.5294 33.4393 34.634 33.4393 33.5294V28.3576C33.4393 26.0284 34.3707 23.913 35.8808 22.3636C36.7414 21.4806 36.9823 20.0466 36.5888 18.8781C35.2612 14.9357 38.0986 10.3529 42.7335 10.3529C47.3712 10.3529 50.204 14.9372 48.8778 18.878C48.4846 20.0466 48.7255 21.4806 49.5861 22.3636C51.0962 23.9129 52.0276 26.0284 52.0276 28.3576V33.5294C52.0276 34.634 52.923 35.5294 54.0276 35.5294H58.4982C59.6027 35.5294 60.4982 34.634 60.4982 33.5294V2C60.4982 0.895431 59.6027 0 58.4982 0H26.9688Z" fill="#10B981"/>
<path d="M36.9688 28.3575V35.5292H48.4982V28.3575C48.4982 25.5657 46.2264 23.2939 43.4346 23.2939H42.0323C39.2405 23.2939 36.9688 25.5657 36.9688 28.3575Z" fill="#10B981"/>
</svg>
