<svg width="23" height="22" viewBox="0 0 23 22" fill="none" xmlns="http://www.w3.org/2000/svg">
<path d="M21.102 7.63212L15.0778 7.10936L12.7253 1.57059C12.3022 0.562408 10.8583 0.562408 10.4352 1.57059L8.08274 7.12181L2.07099 7.63212C0.975687 7.71925 0.527607 9.08838 1.36153 9.81029L5.92946 13.7683L4.56033 19.6432C4.3114 20.7136 5.46894 21.56 6.41488 20.9874L11.5803 17.8757L16.7456 20.9999C17.6916 21.5724 18.8491 20.726 18.6002 19.6556L17.231 13.7683L21.799 9.81029C22.6329 9.08838 22.1973 7.71925 21.102 7.63212ZM11.5803 15.5482L6.9003 18.3736L8.14497 13.0464L4.01268 9.46178L9.46432 8.98881L11.5803 3.9728L13.7086 9.00126L19.1603 9.47423L15.028 13.0589L16.2727 18.3861L11.5803 15.5482Z" fill="black"/>
</svg>
