<svg width="18" height="14" viewBox="0 0 18 14" fill="none" xmlns="http://www.w3.org/2000/svg">
<path d="M17.1931 2.92253H4.35985C4.18625 2.31484 4.02449 1.74862 3.88553 1.26228C3.82338 1.0446 3.6244 0.894531 3.39804 0.894531H0.901532C0.621532 0.894531 0.394531 1.12153 0.394531 1.40153C0.394531 1.68153 0.621532 1.90853 0.901532 1.90853H3.01559C3.58255 3.89313 4.90799 8.53229 5.46366 10.4772L5.27157 10.8613C4.76542 11.8737 5.50256 13.0625 6.63202 13.0625H15.1651C15.4451 13.0625 15.6721 12.8355 15.6721 12.5555C15.6721 12.2755 15.4451 12.0485 15.1651 12.0485H6.63202C6.25495 12.0485 6.01007 11.6518 6.17853 11.3148L6.31866 11.0345H15.1651C15.3915 11.0345 15.5905 10.8845 15.6526 10.6668L17.6806 3.56882C17.773 3.24553 17.5301 2.92253 17.1931 2.92253ZM14.7827 10.0205H6.38778C6.11154 9.05362 5.33839 6.34766 4.64955 3.93653H16.521L14.7827 10.0205Z" fill="#0D172B"/>
</svg>
