<svg width="17" height="19" viewBox="0 0 17 19" fill="none" xmlns="http://www.w3.org/2000/svg">
<path d="M13.494 13.2816C12.8103 13.2816 12.1986 13.5515 11.7308 13.9743L5.31663 10.2409C5.36161 10.034 5.39759 9.82712 5.39759 9.61122C5.39759 9.39532 5.36161 9.18841 5.31663 8.9815L11.6588 5.28415C12.1446 5.73395 12.7833 6.01283 13.494 6.01283C14.9873 6.01283 16.1928 4.80736 16.1928 3.31403C16.1928 1.8207 14.9873 0.615234 13.494 0.615234C12.0006 0.615234 10.7952 1.8207 10.7952 3.31403C10.7952 3.52993 10.8312 3.73684 10.8761 3.94375L4.53398 7.6411C4.04819 7.1913 3.40948 6.91242 2.6988 6.91242C1.20546 6.91242 0 8.11789 0 9.61122C0 11.1046 1.20546 12.31 2.6988 12.31C3.40948 12.31 4.04819 12.0311 4.53398 11.5813L10.9391 15.3237C10.8941 15.5126 10.8671 15.7105 10.8671 15.9084C10.8671 17.3568 12.0456 18.5352 13.494 18.5352C14.9423 18.5352 16.1208 17.3568 16.1208 15.9084C16.1208 14.4601 14.9423 13.2816 13.494 13.2816Z" fill="black"/>
</svg>
