<svg width="60" height="60" viewBox="0 0 60 60" fill="none" xmlns="http://www.w3.org/2000/svg">
<path d="M0 2C0 0.895432 0.89543 0 2 0H18.4706C19.5752 0 20.4706 0.89543 20.4706 2V15.6471C20.4706 16.7516 19.5752 17.6471 18.4706 17.6471H2C0.895431 17.6471 0 16.7516 0 15.6471V2Z" fill="#10B981"/>
<path d="M6.8897 46.0528C6.57576 45.9756 6.24776 45.9755 5.93382 46.0528L1.52214 47.1383C0.628295 47.3582 0 48.1599 0 49.0804V57.9999C0 59.1045 0.89543 59.9999 2 59.9999H18.4706C19.5752 59.9999 20.4706 59.1045 20.4706 57.9999V47.7062C20.4706 46.1415 18.7549 45.1829 17.4223 46.0029L15.0685 47.4516C14.6122 47.7324 14.0624 47.8184 13.5422 47.6903L6.8897 46.0528Z" fill="#10B981"/>
<path d="M0 41.3258C0 42.6239 1.21738 43.578 2.47786 43.2679L5.93385 42.4175C6.24778 42.3403 6.57575 42.3403 6.88968 42.4175L12.9505 43.9092C13.4707 44.0372 14.0204 43.9513 14.4766 43.6705L19.5187 40.568C20.1102 40.204 20.4706 39.5592 20.4706 38.8646V23.647C20.4706 22.5424 19.5752 21.647 18.4706 21.647H2C0.895431 21.647 0 22.5424 0 23.647V41.3258ZM-nan -nanL10.2353 28.2352C12.2459 28.2352 13.8824 29.8717 13.8824 31.8823C13.8824 33.8929 12.2459 35.5293 10.2353 35.5293C8.22471 35.5293 6.58824 33.8929 6.58824 31.8823C6.58824 29.8717 8.22471 28.2352 10.2353 28.2352L-nan -nanL-nan -nanZ" fill="#10B981"/>
<path d="M24.4688 41.5298C24.4688 40.4252 25.3642 39.5298 26.4688 39.5298H57.9982C59.1027 39.5298 59.9982 40.4252 59.9982 41.5298V58.0004C59.9982 59.1049 59.1027 60.0004 57.9982 60.0004H26.4688C25.3642 60.0004 24.4688 59.1049 24.4688 58.0004V41.5298Z" fill="#10B981"/>
<path d="M42.2341 19.7652C43.8585 19.7652 45.1753 18.4484 45.1753 16.824C45.1753 15.1996 43.8585 13.8828 42.2341 13.8828C40.6098 13.8828 39.293 15.1996 39.293 16.824C39.293 18.4484 40.6098 19.7652 42.2341 19.7652Z" fill="#10B981"/>
<path d="M26.4688 0C25.3642 0 24.4688 0.895431 24.4688 2V33.5294C24.4688 34.634 25.3642 35.5294 26.4687 35.5294H30.9393C32.0439 35.5294 32.9393 34.634 32.9393 33.5294V28.3576C32.9393 26.0284 33.8707 23.913 35.3808 22.3636C36.2414 21.4806 36.4823 20.0466 36.0888 18.8781C34.7612 14.9357 37.5986 10.3529 42.2335 10.3529C46.8712 10.3529 49.704 14.9372 48.3778 18.878C47.9846 20.0466 48.2255 21.4806 49.0861 22.3636C50.5962 23.9129 51.5276 26.0284 51.5276 28.3576V33.5294C51.5276 34.634 52.423 35.5294 53.5276 35.5294H57.9982C59.1027 35.5294 59.9982 34.634 59.9982 33.5294V2C59.9982 0.895431 59.1027 0 57.9982 0H26.4688Z" fill="#10B981"/>
<path d="M36.4688 28.3575V35.5292H47.9982V28.3575C47.9982 25.5657 45.7264 23.2939 42.9346 23.2939H41.5323C38.7405 23.2939 36.4688 25.5657 36.4688 28.3575V28.3575Z" fill="#10B981"/>
</svg>
