<svg width="61" height="61" viewBox="0 0 61 61" fill="none" xmlns="http://www.w3.org/2000/svg">
<path d="M26.4387 58.6548C25.1983 59.8818 23.524 60.57 21.7793 60.57C20.0346 60.57 18.3603 59.8818 17.12 58.6548L1.91477 43.4495C0.687759 42.2092 -0.000461793 40.5349 -0.000461793 38.7902C-0.000461793 37.0455 0.687759 35.3712 1.91477 34.1309L33.9978 1.93923C34.7345 1.1927 35.6406 0.635029 36.6389 0.313587C37.6373 -0.00785564 38.6985 -0.0835693 39.7324 0.0928776L52.7654 2.26505C54.1212 2.49707 55.3717 3.144 56.3443 4.11663C57.3169 5.08927 57.9639 6.3397 58.1959 7.6955L60.3681 20.7286C60.5445 21.7624 60.4688 22.8236 60.1474 23.822C59.8259 24.8204 59.2682 25.7264 58.5217 26.4631L26.4387 58.6548ZM45.7059 19.1863C45.7059 18.3271 45.4511 17.4871 44.9737 16.7727C44.4963 16.0583 43.8179 15.5015 43.024 15.1727C42.2302 14.8438 41.3567 14.7578 40.514 14.9254C39.6712 15.0931 38.8972 15.5068 38.2896 16.1144C37.682 16.722 37.2683 17.4961 37.1006 18.3388C36.933 19.1815 37.019 20.055 37.3479 20.8488C37.6767 21.6427 38.2335 22.3211 38.9479 22.7985C39.6623 23.2759 40.5023 23.5307 41.3615 23.5307C42.5137 23.5307 43.6187 23.073 44.4334 22.2582C45.2482 21.4435 45.7059 20.3385 45.7059 19.1863Z" fill="#EF4444"/>
</svg>
